 http://www.imdb.com/title/tt0062229/

Source: Le.Samourai.1967.BluRay.720p.DTS-HD.MA.x264-cGz Thanks!

Subs: Brazilian, Dutch, English, Farsi-Persian, French, Portuguese, Turkish and Vietnamese.

Sample and Screens included.

General
Complete name                            : Le Samourai-720p MP4 AAC x264 BRRip 1967-CC.mp4
Format                                   : MPEG-4
Format profile                           : Base Media
Codec ID                                 : isom
File size                                : 2.67 GiB
Duration                                 : 1h 45mn
Overall bit rate mode                    : Variable
Overall bit rate                         : 3 636 Kbps
Encoded date                             : UTC 2013-02-24 14:39:53

Video
ID                                       : 1
Format                                   : AVC
Format/Info                              : Advanced Video Codec
Format profile                           : High@L4.1
Format settings, CABAC                   : Yes
Format settings, ReFrames                : 5 frames
Codec ID                                 : avc1
Codec ID/Info                            : Advanced Video Coding
Duration                                 : 1h 45mn
Bit rate                                 : 3 435 Kbps
Maximum bit rate                         : 14.2 Mbps
Width                                    : 1 280 pixels
Height                                   : 694 pixels
Display aspect ratio                     : 1.85:1
Frame rate mode                          : Variable
Frame rate                               : 23.976 fps
Minimum frame rate                       : 19.048 fps
Maximum frame rate                       : 24.390 fps
Color space                              : YUV
Chroma subsampling                       : 4:2:0
Bit depth                                : 8 bits
Scan type                                : Progressive
Bits/(Pixel*Frame)                       : 0.162
Stream size                              : 2.54 GiB (95%)
Writing library                          : x264 core 112

Audio
ID                                       : 2
Format                                   : AAC
Format/Info                              : Advanced Audio Codec
Format profile                           : LC
Codec ID                                 : 40
Duration                                 : 1h 45mn
Bit rate mode                            : Variable
Bit rate                                 : 181 Kbps
Maximum bit rate                         : 352 Kbps
Channel(s)                               : 2 channels
Channel positions                        : Front: L R
Sampling rate                            : 48.0 KHz
Compression mode                         : Lossy
Delay relative to video                  : 83ms
Stream size                              : 136 MiB (5%)
Language                                 : French

Enjoy...

Requested by DreamExtractor 

Coming up: Mortal Kombat, Tropa de Elite, Vertigo and more...